<svg width="36" height="36" viewBox="0 0 36 36" fill="none" xmlns="http://www.w3.org/2000/svg">
<path d="M15.1731 35.2478L15.163 22.666H10.8538L10.8521 17.5613L15.1613 17.5578L15.1277 12.8705C15.884 8.258 18.689 7.54142 25.3579 7.53099L25.3697 12.1487L21.8352 12.1365C21.8352 12.1365 20.4588 12.4966 20.4168 13.4097C20.3747 14.3228 20.3512 17.5439 20.3512 17.5439L25.2974 17.5195L24.61 22.6591L20.3159 22.6956L20.3428 35.2617C28.9983 34.0616 35.6184 26.6889 35.6184 17.7161C35.6184 7.90145 27.6974 0 17.8571 0H17.7613C7.92099 0 0 7.90145 0 17.7178C0 26.6541 6.56805 34.0042 15.1731 35.2478Z" fill="#3B607B"/>
</svg>
