<svg width="34" height="36" viewBox="0 0 34 36" fill="none" xmlns="http://www.w3.org/2000/svg">
<path d="M16.9996 3.17669C21.539 3.17669 22.0762 3.19488 23.8691 3.27957C25.5264 3.35795 26.4266 3.6449 27.0259 3.88635C27.8194 4.20619 28.3856 4.58831 28.9808 5.2049C29.5759 5.82218 29.9444 6.40936 30.2521 7.2324C30.4849 7.85388 30.7616 8.7875 30.8371 10.5064C30.9188 12.3652 30.9363 12.923 30.9363 17.631C30.9363 22.339 30.9188 22.8961 30.8371 24.7556C30.7616 26.4745 30.4849 27.4081 30.2521 28.0296C29.9437 28.8526 29.5753 29.4398 28.9808 30.0571C28.3856 30.6744 27.8194 31.0565 27.0259 31.3756C26.4266 31.6171 25.5264 31.904 23.8691 31.9824C22.0768 32.0671 21.539 32.0853 16.9996 32.0853C12.4602 32.0853 11.9224 32.0671 10.1301 31.9824C8.47282 31.904 7.57264 31.6171 6.97341 31.3756C6.17984 31.0558 5.61368 30.6737 5.01851 30.0571C4.42333 29.4398 4.05489 28.8526 3.74718 28.0296C3.51437 27.4081 3.2377 26.4745 3.16213 24.7556C3.08047 22.8968 3.06293 22.339 3.06293 17.631C3.06293 12.923 3.08047 12.3659 3.16213 10.5064C3.2377 8.7875 3.51437 7.85388 3.74718 7.2324C4.05556 6.40936 4.42401 5.82218 5.01851 5.2049C5.61368 4.58762 6.17984 4.20549 6.97341 3.88635C7.57264 3.6449 8.47282 3.35795 10.1301 3.27957C11.9231 3.19488 12.4602 3.17669 16.9996 3.17669ZM16.9996 0C12.3826 0 11.8036 0.0202961 9.99045 0.106379C8.18131 0.191763 6.94574 0.489905 5.86404 0.925921C4.74589 1.37663 3.79779 1.97922 2.85307 2.95973C1.90834 3.93954 1.32666 4.92285 0.892764 6.08183C0.472362 7.20371 0.184896 8.48516 0.10257 10.3615C0.0195693 12.242 0 12.8425 0 17.631C0 22.4195 0.0195693 23.02 0.10257 24.9005C0.184896 26.7768 0.472362 28.0583 0.892764 29.1802C1.32734 30.3398 1.90834 31.3232 2.85374 32.303C3.79914 33.2835 4.74656 33.8861 5.86471 34.3368C6.94574 34.7728 8.18198 35.0709 9.99113 35.1563C11.8043 35.2424 12.3833 35.2627 17.0003 35.2627C21.6173 35.2627 22.1963 35.2424 24.0095 35.1563C25.8186 35.0709 27.0549 34.7728 28.1359 34.3368C29.254 33.8861 30.2021 33.2835 31.1469 32.303C32.0923 31.3225 32.6733 30.3398 33.1078 29.1802C33.5282 28.059 33.8157 26.7768 33.898 24.9005C33.981 23.02 34.0006 22.4195 34.0006 17.631C34.0006 12.8425 33.981 12.242 33.898 10.3615C33.8157 8.48516 33.5282 7.20301 33.1078 6.08183C32.6733 4.92215 32.0923 3.93884 31.1469 2.95903C30.2015 1.97852 29.254 1.37593 28.1359 0.925221C27.0535 0.489905 25.818 0.191763 24.0088 0.106379C22.1956 0.0202961 21.6166 0 16.9996 0Z" fill="#3B607B"/>
<path d="M16.9998 8.57812C12.1783 8.57812 8.27051 12.6317 8.27051 17.6316C8.27051 22.6314 12.179 26.6851 16.9998 26.6851C21.8205 26.6851 25.729 22.6314 25.729 17.6316C25.729 12.6317 21.8212 8.57812 16.9998 8.57812ZM16.9998 23.5084C13.87 23.5084 11.3334 20.8769 11.3334 17.6316C11.3334 14.3856 13.8707 11.7548 16.9998 11.7548C20.1288 11.7548 22.6661 14.3863 22.6661 17.6316C22.6661 20.8776 20.1295 23.5084 16.9998 23.5084Z" fill="#3B607B"/>
<path d="M26.0741 10.3354C27.2007 10.3354 28.114 9.38821 28.114 8.21973C28.114 7.05125 27.2007 6.104 26.0741 6.104C24.9475 6.104 24.0342 7.05125 24.0342 8.21973C24.0342 9.38821 24.9475 10.3354 26.0741 10.3354Z" fill="#3B607B"/>
</svg>
