<svg width="442" height="498" viewBox="0 0 442 498" fill="current" xmlns="http://www.w3.org/2000/svg">
<path d="M441.49 114.08C441.36 112.86 442.01 110.94 440.18 110.81C438.6 110.7 438.54 112.55 438.09 113.79C435.88 119.78 432.64 125.73 426 126.52C417.21 127.57 408.14 128.04 399.34 125.71C389.75 123.18 380.4 122.83 371.37 127.83C368.04 129.68 362.93 132.25 361.04 129.15C359.14 126.04 363.21 122.18 366.49 119.64C370.97 116.17 375.31 112.71 376.05 106.28C376.32 103.9 377.75 101.18 380.12 99.6099C389.49 93.4399 393.03 84.3599 393.25 73.5899C393.3 71.4199 393.36 69.2499 394.99 67.4999C401.14 60.9099 400.46 53.6799 396.95 46.1899C395.39 42.8699 394.67 39.5099 397.07 36.2599C399.43 33.0599 399.86 29.5399 398.89 25.8099C398.04 22.5299 398.92 19.6399 400.32 16.6699C402.58 11.8799 406.12 8.19991 409.85 4.59991C410.87 3.6199 412.67 2.54991 411.8 0.949905C411 -0.530095 409.04 0.119905 407.64 0.319905C402.8 1.02991 398.56 3.05991 396.46 7.68991C393.75 13.6299 389 15.8899 382.93 16.1299C379.27 16.2699 375.6 16.2099 371.93 16.1999C366.95 16.1899 362.8 17.8699 360 22.1399C359.13 23.4699 358.05 24.6299 356.55 24.7999C351.38 25.3899 347.5 27.7599 344.82 32.2499C344.37 33.0099 343.26 33.5099 342.35 33.8299C326.28 39.4599 317.22 51.4699 311.94 67.0099C310.66 70.7799 309.07 74.2099 305.33 76.5599C298.9 80.5899 293.97 86.1699 290.24 92.8699C288.48 96.0299 287.08 99.4899 284.14 101.89C276.8 107.89 275.01 116.63 273.01 125.14C272.39 127.77 270.98 130.49 272.05 133.44C275.45 142.76 267.77 147.99 264.49 154.88C262.83 147.72 261.44 140.71 264.62 133.86C267.84 126.91 266.29 120.56 262.34 114.53C259.8 110.64 257.72 106.82 256.75 102C255.61 96.3999 255.2 89.6499 248.97 86.5099C241.71 82.8499 237.84 77.0299 234.77 69.5399C234.41 68.6599 226.81 61.4499 223.96 58.0399C221.42 55.0099 218.95 51.8999 215.88 49.3799C212.93 46.9599 209.5 45.3799 205.95 44.0699C200.64 42.1099 194.16 40.2399 190.34 35.7899C189.93 36.4199 178.43 22.4799 175.14 13.5199C174.33 11.3199 171.99 9.6899 169.56 8.7399C168.55 8.3399 167.52 7.0699 166.47 8.3599C165.51 9.5399 166.61 10.4799 167.3 11.3999C174.89 21.5599 177.7 33.0899 177.31 45.6099C177.1 52.2699 176.9 58.9599 177.25 65.5999C177.78 75.5099 177.72 85.5999 183.91 94.2799C186.64 98.0999 186.4 102.21 184.65 106.59C182.1 112.98 182.59 119.03 186.86 124.98C192.49 132.82 195.84 141.64 194.84 151.59C194.27 157.24 196.04 162.22 199.51 166.44C207.43 176.07 215.07 186.01 223.8 194.86C231.7 202.87 237.38 211.99 241.97 222.03C243.6 225.58 243.41 228.74 240.51 231.6C237.39 234.68 236.59 238.43 237.5 242.64C238.5 247.27 238.49 251.91 237.26 256.5C234.46 266.98 229.84 276.75 225.55 286.65C216.45 307.7 207.39 328.77 198.26 349.81C195.81 355.45 190.79 358.21 186.51 356.27C180.59 353.58 175.01 350.24 169.74 346.45C165.28 343.24 162.68 338.84 161.12 333.44C159.75 328.7 159.7 323.6 156.95 319.18C153.09 312.98 148 308.02 142.21 303.79C136.66 299.74 132.96 294.16 129.82 288.42C127.45 284.08 124.95 280.08 121.14 277.06C110.42 268.57 102.94 258.27 101.72 244.17C101.34 239.73 98.3899 236.26 96.5299 232.38C96.0299 231.35 95.3599 230.1 93.9399 230.62C92.8399 231.03 92.9999 232.3 93.1199 233.25C93.5999 237.09 92.1899 240.41 90.4999 243.71C83.0999 258.2 79.9499 273.19 83.5899 289.52C85.1399 296.45 87.8099 303.21 87.9799 310.43C88.0399 312.86 88.7399 315.12 90.0699 317.01C96.3699 326.01 102.66 335.07 112.81 340.01C103.2 342.6 93.5699 346.08 83.6399 347.62C73.7299 349.16 64.7199 352.43 55.9099 356.81C49.5199 359.99 43.0499 363 36.6699 366.21C27.7599 370.7 20.0999 376.61 14.8999 385.37C10.3799 392.98 7.77991 401.48 3.62991 409.25C2.53991 411.29 -1.61009 412.99 0.639908 415.2C2.81991 417.34 6.00991 414.29 8.70991 413.32C9.30991 413.11 9.71991 412.43 10.2999 412.14C20.7699 406.89 31.1899 401.82 43.5699 405.17C48.9799 406.63 54.6299 407.4 60.2199 407.97C73.3299 409.31 86.0699 408.03 96.3899 398.87C102.42 393.52 110.33 391.25 116.15 385.7C116.89 384.99 118.28 384.68 119.37 384.65C132.15 384.41 141.16 377.44 148.73 368.08C153.52 362.17 157.32 361.01 163.84 364.49C168.41 366.93 172.99 368.92 178.18 369.96C185.34 371.4 187.41 374.97 185.7 381.3C184.71 384.98 183.52 388.64 182.14 392.19C174.11 412.76 165.98 433.3 157.9 453.86C157.3 455.39 156.29 457.48 158.26 458.23C160.17 458.96 160.84 456.71 161.47 455.23C163.45 450.56 165.37 445.86 167.31 441.17C163.74 449.64 163.57 458.19 165.97 467.16C167.68 466.15 168.2 464.58 168.77 463.04C175.43 445.15 181.94 427.2 188.79 409.38C192.23 400.42 194.49 390.92 200.12 382.88C201.6 380.77 203.2 379 205.93 378.58C228.65 375.12 250.94 389.09 261.05 407.68C265.16 415.23 269.02 423.17 277.77 426.78C278.61 427.13 279.23 428.08 279.88 428.82C289.43 439.62 302.02 446.17 314.38 452.88C317.8 454.73 320.46 456.43 322.02 460.03C325.51 468.07 329.67 475.74 338.33 479.34C342.51 481.08 346.51 483.04 350.23 485.58C351.76 486.63 353.11 487.75 354.21 489.01C358.25 491.15 361.98 493.97 365.24 497.08C370 490.49 371.17 481.93 371.19 473.99C371.19 473.72 371.29 473.51 371.44 473.36C371.46 471.87 371.4 470.39 370.67 469.06C365.43 459.51 363.22 448.92 359.87 438.71C356.7 429.03 352.18 420.31 342.26 415.66C335.83 412.64 330.68 408.08 326.71 402.08C325 399.49 322.35 397.64 319.67 395.84C304.43 385.61 286.26 383.59 269.7 377.34C274.82 377.54 280.35 376.31 285.33 378.57C295.1 383.01 305.07 382.49 315.39 381.47C326.22 380.4 336.96 379.83 345.79 372.3C347.14 371.15 348.97 370.36 350.71 369.91C360.19 367.47 366.12 360.78 371.95 353.47C377.38 346.67 381.51 338.64 389.43 333.98C394.71 330.87 397.76 325.78 399.45 320.11C403.25 307.34 406.91 294.58 415.91 284.19C416.9 283.05 418.81 281.3 417.74 279.93C416.33 278.13 414.45 280.18 412.82 280.71C412.05 280.96 411.34 281.48 410.67 281.97C405.83 285.57 400.59 288.13 394.75 289.95C387.94 292.07 381.3 295.03 377.76 302.09C376.93 303.75 375.2 303.94 373.4 303.79C364.16 303 355.12 304.74 346.36 307.11C331.27 311.2 317.85 318.77 305.9 328.87C301.09 332.94 296.65 337.48 289.37 336.38C287.36 336.08 285.23 337.32 283.23 338.22C273.58 342.54 266.45 350.08 258.93 357.12C256.12 359.75 253.32 362.76 249.29 362.87C239.63 363.14 229.95 363.29 220.31 362.89C214.08 362.63 210.92 359.24 211.51 354.51C211.84 351.9 212.54 349.25 213.54 346.81C224.44 320.39 235.39 293.99 246.44 267.63C249.41 260.55 252.64 253.57 260.11 249.84C262.49 248.65 263.71 246.32 264.08 243.77C264.96 237.73 269.08 235.3 274.36 233.59C289.08 228.82 303.98 230.7 318.87 232.11C324.62 232.65 330.28 232.06 335.2 229.26C342.39 225.17 349.14 220.29 356.13 215.84C359.42 213.74 362.19 211.29 363.92 207.67C367.05 201.13 373.42 199.61 379.63 198.72C383.5 198.17 386.66 196.91 389.46 194.44C394.01 190.43 397.95 185.96 399.61 179.93C400.31 177.38 401.82 175.68 404.24 174.46C414.04 169.52 418.95 160.43 423.38 151.1C425.49 146.67 426.11 141.63 430.51 138.31C438.53 132.32 442.59 124.29 441.49 114.08ZM405.9 3.67991C402.96 7.0099 400.93 9.2999 398.57 11.9699C398.79 7.5699 401.51 5.83991 405.9 3.67991ZM95.2699 245.33C95.4899 244.34 95.6299 242.94 96.7899 244.78C99.1699 248.59 99.6199 253.05 99.8299 257.25C100.1 262.85 99.2199 268.51 98.7699 274.14C98.7099 274.93 98.3199 275.75 96.2999 275.74C96.2999 268.53 96.3499 261.3 96.2799 254.07C96.2499 251.14 96.9499 248.09 95.2699 245.34V245.33ZM95.1999 245.41C92.7399 253.45 93.2199 261.76 93.0499 270.22C88.0699 260.43 88.8299 252.26 95.1999 245.41ZM104.46 328.51C102.34 325.21 99.1599 322.6 96.4799 319.64C92.1499 314.86 92.5299 308.47 90.9999 302.79C87.5399 289.93 84.6099 276.94 88.0099 263.56C90.8399 279.25 99.6699 292.36 107.16 306.19C98.4499 301.36 93.5599 293.38 89.2099 284.75C88.6999 288.96 90.3599 292.48 92.4099 295.95C97.5899 304.69 106.06 309.79 113.78 315.82C119.45 320.25 124.39 325.62 129.29 331C117.59 328.24 108.11 322.05 100.24 312.55C98.7899 315.37 100.71 316.64 101.82 317.99C109.78 327.61 120.69 332.48 132.13 336.31C141.98 339.61 151.48 343.44 158.98 350.97C159.66 351.65 160.21 352.46 161.58 354.14C158.79 354.14 157.13 354.06 155.49 354.16C153.1 354.31 151.38 354.44 151.99 350.87C152.42 348.36 149.97 346.84 147.81 345.82C139.06 341.7 129.87 338.79 120.34 337.35C113.78 336.37 108.28 334.46 104.46 328.51ZM82.7099 352.05C89.1999 351.12 95.4299 349.62 101.53 347.51C114.47 343.05 126.36 345.88 137.76 352.3C139.79 353.44 141.82 354.36 144 355.35C130.98 354.22 118.39 347.91 104.87 352.56C113.26 353.88 122.28 352 130.51 357.11C120.66 357.11 111.32 357.54 102.05 356.95C96.6599 356.61 91.3599 355.15 85.8299 355.06C78.4399 354.94 71.3999 356.46 64.2699 358C69.8499 354.19 76.4299 352.94 82.7099 352.05ZM103.84 360.79C83.7699 365.65 63.1699 365.19 42.9399 367.83C62.3799 358.61 82.5699 355.18 103.84 360.79ZM14.2499 405.85C13.9599 406.04 13.1099 405.39 12.5199 405.14C11.8199 404.79 9.71991 406.36 10.5599 403.92C13.1599 396.37 16.4099 389.14 21.3699 382.78C23.4199 380.15 26.8399 381.58 29.4199 379.72C34.6399 375.96 40.3699 373 46.6399 370.98C50.9099 369.6 54.9799 369.58 59.5299 370.43C54.3199 373.09 48.9999 375.56 43.9199 378.44C33.9099 384.1 24.7799 390.95 16.8299 399.3C15.8799 400.29 15.0799 401.29 15.0099 402.72C21.4999 399.79 26.0099 394.24 31.6099 390.11C39.1399 384.57 47.1499 379.95 55.5199 375.89C55.8799 375.72 56.4399 375.96 57.9599 376.13C50.4599 383.57 42.3199 388.82 33.9099 393.77C38.9399 393.85 42.8799 391.4 46.6699 388.83C52.1799 385.11 57.8399 381.44 62.1899 376.37C68.5599 368.93 77.5799 368.18 86.0999 366.88C91.7299 366.02 97.5599 364.77 104.11 365.65C98.6299 372.32 92.1099 377.12 85.8799 382.16C74.2699 391.56 61.1899 398.4 46.1799 399.3C35.0899 399.97 24.0199 399.26 14.2499 405.85ZM162.32 359.2C156.22 356.85 150.66 358.02 146.85 363.45C139.36 374.13 129.13 379.67 116.38 381.17C114.79 381.36 113.09 382.02 111.8 382.95C105.15 387.78 97.6399 391.28 91.4699 396.88C86.2299 401.64 79.5499 403.2 72.5299 403.29C64.5399 403.39 56.5499 403.47 48.0599 401.53C69.7099 399.65 85.3499 387.37 100.43 374.06C105.75 369.36 110.57 364.14 117.68 361.74C122.64 360.07 127.5 360.86 132.92 360.25C124.98 372.52 112.79 378.23 101.31 384.95C106.92 384.83 111.27 381.82 115.87 379.57C121.76 376.69 126.74 372.46 131.04 367.55C140.7 356.52 161.38 354.19 173.22 362.09C175.39 363.54 177.95 364.38 180.34 365.5C173.49 364.98 168.15 361.45 162.32 359.2ZM172.42 442.54C176.82 425.66 182.56 409.28 190.51 393.71C184.48 409.98 178.45 426.26 172.42 442.54ZM191.4 379.94C191.82 375.81 191.01 372.1 187.64 369.03C195.89 370.5 196.01 370.84 191.4 379.94ZM189.96 365.68C173.29 360.9 161.63 348.93 149.01 338.25C144.32 334.28 143.19 328.6 141.68 323.27C138.72 312.85 131.32 305.85 123.74 298.84C131.27 309.75 139.64 320.11 141.08 334.33C131.61 328.3 122.26 322.48 118.35 311.09C117.39 308.29 117.61 305.51 117.51 302.71C117.13 292.55 111.76 284.72 105.43 277.23C110.38 287.8 116.05 298.11 114.53 309.89C104.18 297.05 95.1599 283.34 103.46 265.37C107.62 272.27 115.14 276.59 120.84 282.78C124.58 286.85 126.51 292.1 129.53 296.65C132.87 301.68 137.15 305.28 141.77 308.77C149.76 314.8 155.1 322.19 156.31 332.64C157.26 340.8 161.23 347.75 168.96 351.88C173.5 354.3 177.78 357.36 182.53 359.25C190.94 362.6 191.38 365.03 201.03 355.99C200.24 358.02 199.55 359.67 198.97 361.35C196.88 367.36 195.89 367.37 189.96 365.68ZM357.23 483.31C357.21 485.2 356.31 485.28 355.05 484.3C349.36 479.87 342.57 477.37 336.51 473.63C331.39 470.48 328.61 465.21 326.45 459.74C324.72 455.35 323.22 450.74 317.96 449.48C309.56 447.47 303.79 441.01 296.5 437.16C292 434.78 288.87 430.72 284.85 427.97C273.67 420.31 267.71 408.62 259.67 398.42C250.25 386.47 238.44 376.83 221.88 374.61C213.45 373.48 205.64 372.43 197.77 376.89C198.08 373.74 199.58 372.67 202.35 372.45C224.39 370.73 244.93 374.93 263.54 387.37C271.08 392.41 274.41 400.62 279.35 407.61C284.78 415.3 288.84 424.05 296.89 429.64C297.12 429.41 297.36 429.18 297.59 428.95C289.37 417.87 282 406.23 275.09 394.15C286.41 402.4 300.28 407.48 307.87 420.28C312.78 428.56 317.03 437.24 321.56 445.75C324 450.35 326.28 455.06 331.27 457.83C325.07 445.95 318.87 434.06 311.98 420.84C322.84 428.11 330.23 436.61 337.36 445.58C342.96 452.62 345.17 460.86 348.26 468.89C350.29 474.24 352.33 479.7 357.23 483.31ZM361.39 490.92C359.13 485.3 352.73 472.03 350.47 466.4C354.39 470.13 356.89 474.7 358.93 479.55C359.7 481.36 362.36 489.86 361.39 490.92ZM343 420.74C348.29 423.92 351.92 428.24 353.79 433.92C355.4 438.8 357.52 443.47 358.55 448.61C359.71 454.43 361.49 460.15 364.92 465.25C367.85 469.6 366.71 474.95 367.69 479.8C367.85 480.57 367.25 489.41 366.5 489.5C364.69 489.73 363.32 480.84 362.42 479.16C360 474.67 357.61 470.17 354.83 464.95C359.57 466.93 361.65 471.12 365.62 472.93C364.23 468.81 361.1 465.74 357.91 463.39C349.59 457.24 343.31 449.42 337.43 441.12C331.6 432.9 324.57 425.89 316.43 419.95C315.43 419.22 314.68 418.15 314.03 416.98C328 422.19 339.19 431.64 350.89 441.73C351.1 437.87 349.03 436.42 347.38 435.06C335.19 425.03 322.98 415.33 307.18 410.87C298.35 408.38 291.99 400.68 284.25 395.63C297.59 398.76 310.4 403.06 321.91 410.66C323.44 411.67 325.13 414.25 327.25 411.34C331.68 415.83 337.77 417.58 343 420.74ZM395.3 320.97C393.46 325.65 390.34 329.5 385.69 332.03C377.73 336.36 373.96 344.57 368.71 351.34C363.27 358.35 357.41 364.28 348.5 366.72C345.56 367.53 342.91 369.6 340.28 371.32C337.33 373.24 334.42 375.21 330.81 375.53C320.58 376.43 310.36 377.42 300.12 378.03C295.25 378.32 290.61 376.15 286.18 374.58C279.79 372.3 273.28 373.72 266.93 372.47C264.5 371.99 261.68 373.09 261.37 376.22C261.09 379.02 263.29 380.32 265.64 381.01C275.5 383.89 285.5 386.36 295.23 389.61C306.59 393.4 317.93 397.49 325.43 407.84C326.21 408.91 327 409.9 327.21 411.23C320.18 406.9 313.29 402.38 305.64 399.1C294.62 394.37 282.98 391.52 271.72 387.5C263.06 384.41 255.71 378.7 247.25 375.22C246.61 374.96 246.07 374.45 246.33 373.7C246.65 372.77 247.58 372.72 248.41 372.64C252.05 372.25 255.71 371.38 259.33 371.57C272.1 372.22 284.49 370.27 296.8 367.13C299.17 366.53 301.91 366.2 304.22 366.78C321.58 371.15 336.02 363.17 350.56 355.95C357.83 352.34 364.41 347.54 369.62 340.92C351.03 353.43 332.35 365.56 308.49 363.94C327.66 356.94 343.94 344.72 361.61 335.03C371.07 329.85 381.14 325.86 389.28 318.46C391.86 316.12 394.05 313.66 395.25 310.2C388.12 316.23 381.65 323.06 371.77 326.51C382.98 315.46 393.56 305.02 405.26 293.49C400.47 303.09 398.71 312.31 395.3 320.97ZM299.28 341.34C304.99 334.86 311.5 329.33 318.71 324.55C328.17 318.27 338.33 313.41 349.3 310.72C358.76 308.4 368.49 307.06 378.27 309.3C381 308.36 383.86 308.03 382.47 303.49C381.76 301.17 384.96 299.47 386.89 297.98C390.89 294.89 395.82 293.77 400.95 292.41C391.91 301.8 382.87 311.19 373.84 320.58C373.67 315.9 377.21 313.2 378.22 309.35C375.25 309.84 373.59 312.17 372.45 314.43C366.34 326.5 356.43 334.52 345.17 341.4C333.96 348.25 322.56 354.66 310.33 359.54C309.56 359.85 308.8 360.19 307.58 359.53C321.34 346.42 332.48 330.94 347.56 319.17C342.91 320.31 339.37 323.13 336.17 326.24C327.24 334.93 318.15 343.5 309.82 352.74C301.71 361.74 291.53 365.58 280.09 367.14C275.2 367.81 270.49 370.14 264.68 368.54C277.08 362.38 284.19 349.83 297.05 344.8C298.17 344.35 301.29 344.17 299.28 341.34C299.27 341.34 299.28 341.34 299.28 341.34ZM221.52 368.27C231.51 369.27 241.37 367.17 251.27 366.36C254.92 366.06 257.61 363.67 260.22 361.28C264.5 357.35 268.47 353.11 272.96 349.37C280.66 342.95 289.23 340.1 299.16 341.33C290.95 344.36 283.84 349.2 277.57 355.18C264.6 367.55 248.77 371.27 231.62 370C223.14 369.37 214.7 369.11 206.22 368.98C201.37 368.91 200.35 367.6 202.38 363.3C203.92 360.02 203.68 356.05 206.33 353.21C206.62 353.44 207.05 353.65 207.02 353.78C205.44 363.56 210.96 367.21 221.52 368.27ZM396.06 56.3299C396.05 58.7599 395.71 60.9799 393.95 62.7699C389.8 66.9699 388.6 72.4999 388.51 77.8999C388.39 85.0599 385.49 90.3799 380.25 94.7299C375.91 98.3399 372.53 102.3 371.69 108.27C371.19 111.82 368.39 114.51 365.37 116.31C361.38 118.68 358.96 122.13 357.55 126.29C356.05 130.7 353.09 132.53 348.08 132.64C350.02 127.7 353.55 124.01 355.27 118.42C352.41 120.09 351.21 122.2 350.08 124.2C347.09 129.47 342.57 133.52 339.16 138.44C335.65 143.52 330.03 144.9 324.76 146.74C314.72 150.26 308.01 157.62 303.14 166.41C299.9 172.26 294.94 174.41 288.24 177.37C297.59 161.51 304.44 145.85 314.33 131.89C315.58 130.13 317.02 128.46 318.04 126.58C321.12 120.92 326.05 118.52 332.06 116.5C356.53 108.27 373.9 92.3799 381.96 67.1099C371.12 90.5099 354.15 106.82 328.2 114.71C335.42 102.45 342.07 91.3699 351.19 82.0399C355.1 78.0399 360.05 75.4299 364.87 72.9799C378 66.2999 385.44 55.1399 391.09 41.6399C393.32 46.6099 396.09 50.9299 396.06 56.3299ZM266.32 222.53C268.27 222.59 270.22 222.42 272.18 222.34C268.99 225.16 265.04 226.08 260.54 227.33C262.57 219.38 266.43 213.03 270.32 206.73C274.92 199.28 278.36 191.08 284.82 184.83C287.49 182.24 290.44 180.23 293.8 178.73C294.68 178.34 295.51 177.38 296.42 178.44C297.17 179.32 296.66 180.3 296.22 181.22C290.17 193.84 283.13 205.81 273.46 216.06C271.65 217.98 269.73 219.95 266.64 219.52C265.69 219.39 264.5 219.11 264.42 220.63C264.38 221.83 265.29 222.5 266.32 222.53ZM393.64 21.9399C397.54 29.0699 395.88 34.8099 389.95 39.5799C388.56 40.6999 388.15 42.3299 387.47 43.8299C381.02 58.0699 372.15 67.1299 359.63 71.6399C372.61 55.5999 383.02 38.7599 393.64 21.9399ZM266.92 167.72C266.07 162.05 267.64 157.04 271 152.27C274.63 147.13 277.18 141.62 276.5 134.77C275.25 122.21 279.73 111.47 288.26 102.22C292.85 97.2299 294.43 90.0899 299.95 85.6199C303.29 82.9199 306.07 79.5899 309.82 77.2799C312.99 75.3199 314.6 72.2799 315.7 68.4599C319.8 54.2999 327.86 43.8299 342.23 37.7799C349.19 34.8499 356.04 30.1499 361.92 25.1199C365.03 22.4599 367.42 20.3699 371.48 20.3199C378.26 20.2499 385.16 21.2099 391.93 18.1199C382.07 35.7899 370.87 52.3199 358.08 67.8099C361.36 51.2299 362.7 33.7799 380.76 23.3099C376.1 22.8199 374.18 24.7499 372.31 26.3399C364.82 32.6999 359.94 40.8499 358.21 50.4099C355.41 65.9399 350.08 79.9799 339.28 91.9299C334.36 97.3699 330.91 104.14 325.99 111.52C326.66 84.8599 328.54 60.1299 346.74 40.0099C335.64 47.5199 330.66 58.7499 327.27 70.8999C323.91 82.9499 323.23 95.4099 322.18 107.78C321.58 114.93 318.45 120.91 314.36 126.37C303.94 140.29 296.82 156.15 287.87 170.97C287.17 167.41 290.75 134.68 291.89 129.94C295.08 116.59 298.02 103.19 306.07 91.5099C301.34 94.0699 299.41 98.5999 297.12 102.75C291.89 112.21 290.87 122.98 287.91 133.15C285.63 140.99 286.32 148.99 285.31 156.87C283.59 170.36 280.63 183.15 273.4 194.98C267.88 204.02 261.54 212.71 258.16 222.95C257.83 223.94 257.28 225.11 256.14 224.64C254.06 223.79 252.81 221.93 251.93 219.93C251.32 218.54 252.46 218.39 253.5 218.16C257.48 217.28 258.92 214.54 258.53 210.76C257.7 202.7 259.91 194.91 260.51 186.97C260.71 184.28 261.81 181.85 263.64 179.76C266.7 176.33 267.61 172.31 266.92 167.72ZM261.15 176.58C255.65 183.19 255.71 191.02 255.11 198.75C254.78 202.97 255.05 207.23 255.05 211.48C250.58 203.79 254.37 196.07 254.04 188.44C253.67 179.68 259.08 173.54 261.79 165.84C263.84 169.84 263.43 173.85 261.15 176.58ZM179.38 27.4599C184.56 31.2699 185.2 34.8399 181.5 42.7399C180.81 37.7999 180.13 32.8599 179.38 27.4599ZM240.85 261.57C242.9 254.23 244.14 246.98 241.73 239.54C241.22 237.96 242.26 236.57 243.36 235.55C249.74 229.63 247.84 222.89 244.29 216.56C235.52 200.9 223.17 188.09 211.05 175.09C207.88 171.69 204.92 168.06 202.17 164.31C199.36 160.48 197.77 156.17 198.35 151.22C199.6 140.59 196.3 131.31 190.2 122.68C187.56 118.95 185.65 114.97 187.93 109.72C190.69 103.36 190.31 96.6899 186.02 90.7199C182.74 86.1599 182 80.9699 182.28 75.5099C182.69 67.5499 181.45 59.5099 183.34 51.6099C183.57 50.6599 184.81 39.4199 186.04 39.8299C186.28 39.9099 187.51 39.9799 190.7 41.9499C193.34 43.5099 195.46 43.8299 198.17 45.2599C199.4 45.8999 209.4 46.7199 216.9 55.3799C217.95 56.3399 229.32 67.2299 232.43 72.3999C232.68 72.8099 239.36 85.2799 245.73 88.4699C251.2 91.2099 252.28 97.0599 252.62 102.63C252.94 107.92 255.07 112.3 258.51 116.04C263.36 121.32 263.31 127.55 260.89 133.32C258.27 139.59 258.14 145.83 259.66 151.87C261.2 157.96 259.05 162.89 257.1 168.1C256.64 169.33 256.02 170.57 255.23 171.62C248.76 180.22 250.06 190.54 248.98 200.29C248.51 204.53 248.9 208.88 248.53 213.2C242.06 201.19 237.1 189.28 244.35 175.39C248.47 167.5 252.48 159.4 254.68 150.61C258.19 136.57 256.35 122.96 251.71 109.54C251.44 108.77 251.11 107.98 248.96 107.48C253.01 120.46 254.69 133.25 252.47 146.24C250.24 159.24 242.63 170.09 237.79 182.22C237.17 172.22 231.95 162.57 236.77 152.29C239.63 146.2 239.66 139.39 240.2 132.77C241.71 114.06 239.39 96.0299 231.71 78.6799C229.57 73.8599 220.6 64.2299 219.79 64.1999C217.73 64.1199 218.78 65.7399 219.07 66.4099C223.24 69.7599 229.29 78.9899 228.92 79.2599C230.72 83.3599 232.68 87.4899 233.66 91.8099C235.34 99.1999 237.54 106.52 237.27 114.31C236.83 126.71 237.85 139.23 233.39 151.89C230.59 147.48 230.99 142.78 229.52 138.6C226.96 131.27 224.98 123.73 222.52 116.35C220.58 110.51 222.85 104.84 222.76 99.0899C222.67 93.2699 222.8 87.4699 220.89 81.8599C219.41 77.5199 216.43 72.3699 214.95 70.2399C213.92 68.7499 208.95 62.3799 207.6 61.1099C206.51 61.4899 213.31 71.4799 214.14 72.8399C215.4 74.9299 217.45 81.1399 217.69 82.3299C219.01 88.7999 220.9 95.0199 219.46 102.82C215.26 96.8099 213.36 90.9499 210.44 85.6399C209 83.0199 207.82 80.2599 206.39 77.6399C205.46 75.9299 202.01 66.6399 199.41 63.0699C196.56 59.1499 194.85 54.2099 191.44 50.7199C191.53 55.1999 194.63 60.0299 196.59 63.7699C198.65 67.6899 203.61 78.6599 204.56 80.8399C207.61 87.8099 211.17 94.5499 214.51 101.4C215.13 102.67 216.81 104.17 215.25 105.33C213.41 106.7 212.38 104.42 211.3 103.39C203.07 95.6299 197.18 86.2199 193.16 74.5599C191.12 70.5099 188.07 56.6899 186.45 57.6199C186.04 64.8299 188.42 71.0999 190.78 77.0299C196.12 90.4599 203.56 102.56 215.81 111.08C219.74 113.81 219.68 118.62 220.87 122.71C223.46 131.62 226.9 140.29 228.73 149.42C228.98 150.65 229.76 152.2 228.25 153.02C227.11 153.64 226.15 152.6 225.19 151.88C212.6 142.46 203.9 130.14 198.2 115.61C195.98 109.95 193.93 104.22 191.42 97.4899C189.36 102 191.66 104.6 192.42 107.33C196.84 123.16 204.64 137.13 216.37 148.72C219.43 151.74 223 154.25 226.35 156.97C230.35 160.22 232.72 164.28 232.11 169.55C231.62 173.77 233.52 177.62 234.05 182.7C220.07 170.75 208.56 158.21 202.52 141.24C202.32 146.2 203.93 150.43 206.04 154.39C210.29 162.35 215.47 169.67 222.24 175.74C231.37 183.91 237.48 193.79 241.1 205.59C243.58 213.67 247.58 221.27 253.33 227.72C254.25 228.75 255.26 229.74 254.63 231.21C250.24 241.39 245.81 251.55 240.85 261.57ZM420.65 147.14C416.92 158.02 411.61 167.69 399.91 172.02C396.14 173.42 395.16 176.96 394.29 180.33C392.33 187.89 385.88 194.41 378.11 195.07C369.79 195.78 364.42 200.24 360.09 206.73C357.85 210.08 355.26 213.02 351.51 214.86C344.51 218.29 338.52 223.44 331.25 226.52C325.5 228.96 319.81 228.51 314.11 227.51C298.37 224.74 283.04 225.57 268.17 231.74C265.14 233 262.21 235.02 261.55 238.13C260.16 244.73 256.2 248.51 249.99 250.65C252.56 244.99 255.14 239.35 257.66 233.68C258.31 232.22 259.13 231.35 260.82 230.92C269.44 228.74 277.04 224.26 284.69 219.93C293.77 214.79 303.17 212.26 313.66 215.02C324.3 217.83 334.75 216.87 344.8 212.28C346.07 211.7 348.41 211.18 347.37 209.41C346.12 207.28 345.06 209.68 343.92 210.35C338.59 213.5 332.59 214.78 326.67 214C316.51 212.66 306.51 210.11 294.7 211.55C300.24 205.53 306.18 202.5 311.26 198.42C317.73 193.22 325.11 191.75 333.22 192.36C341.01 192.95 348.82 192.57 356.63 193.6C361.22 194.21 366.09 192.74 370.84 192.2C370.84 191.75 370.84 191.29 370.84 190.84C356.01 190.15 341.19 189.45 325.73 188.73C333.59 182.29 342.14 178.09 350.91 174.26C355.02 172.46 359.13 170.62 363.37 169.15C366.72 167.99 370.33 168.21 373.73 169.04C385.3 171.88 395.54 168.82 405.07 162.36C399.44 163.5 394.07 165.94 388.27 166.16C382.64 166.38 376.99 166.21 371.18 165.7C389.16 158.44 407.21 151.44 423.6 138.54C421.77 141.93 421.5 144.65 420.65 147.14ZM374.1 160.41C377.2 153.81 389.17 143.5 402.16 135.59C394.55 136.63 388.51 140.89 382.94 145.77C378.69 149.49 374.61 153.49 370.96 157.8C366.21 163.42 360.7 167.5 353.67 169.92C346.95 172.24 340.49 175.33 333.65 179.18C343.02 158.5 354.99 141.47 378.05 135.45C363.13 136.56 352.32 144.23 343.78 155.49C339.46 161.19 335.6 167.21 332.67 173.79C329.52 180.85 324.16 185.91 317.81 190.15C311.34 194.47 305.08 199.1 297.96 204.14C300.78 188.49 309.19 176.9 318.57 165.71C314.4 166.99 312.02 170.3 309.47 173.32C302.72 181.31 298.2 190.47 295.21 200.48C291.76 212.03 282.78 217.9 272.39 222.22C283.54 212 291.32 199.34 298.35 186.17C300.92 181.35 302.58 176.1 305.18 171.24C310.98 160.42 318.54 152.03 331.09 148.93C335.74 147.78 339.8 144.88 343.36 141.49C348.14 136.94 353.89 134.43 360.45 134.5C365.14 134.55 369.41 133.19 373.39 131.25C382.89 126.62 392.42 127.69 402.02 130.33C403.97 130.87 405.96 131.85 407.82 131.24C414.06 129.18 420.04 132.75 426.37 131.78C411.22 145.48 393.41 153.86 374.1 160.41Z"/>
</svg>
