<svg width="41" height="38" viewBox="0 0 41 38" fill="none" xmlns="http://www.w3.org/2000/svg">
<mask id="path-1-outside-1" maskUnits="userSpaceOnUse" x="0" y="0.210938" width="41" height="38" fill="black">
<rect fill="white" y="0.210938" width="41" height="38"/>
<path d="M11.889 12.5083C12.4229 11.1867 13.1773 9.88344 14.1167 8.77865C14.4525 8.3834 14.8339 8.01601 15.2627 7.70869C15.4394 7.58159 15.6236 7.47189 15.8235 7.37961C15.8682 7.35871 16.0589 7.2821 16.017 7.2969C16.07 7.27862 16.3798 7.20636 16.2663 7.22551C16.3295 7.21507 16.3937 7.20636 16.4579 7.20114C16.603 7.18895 16.2626 7.19417 16.5072 7.20375C16.5351 7.20462 16.6709 7.21071 16.5212 7.20288C16.5695 7.20549 16.6318 7.21245 16.6811 7.22377C16.7397 7.23683 16.9434 7.28645 17.0551 7.36916C17.2709 7.53022 17.3853 7.70347 17.5425 7.97248C18.441 9.50038 18.4754 11.4975 18.4791 13.1934C18.4838 15.5911 18.1963 17.9948 17.7183 20.348C17.2774 22.5193 16.6811 24.7097 15.6794 26.7199C15.3278 27.4242 14.8981 28.179 14.3539 28.7353C13.9986 29.0992 13.5242 29.2559 13.0164 29.3743C12.7531 29.4353 12.5653 29.4579 12.3476 29.4596C12.1281 29.4614 12.009 29.4501 11.7746 29.3682C10.7654 29.0183 10.4669 27.8229 10.5106 26.8766C10.5738 25.4976 11.1617 24.1656 11.8816 22.9789C13.3466 20.5656 15.511 18.5189 17.8643 16.8534C18.8809 16.1334 19.9571 15.4788 21.1096 14.9642C21.5625 14.7623 21.9365 14.616 22.408 14.488C22.7057 14.4079 22.6703 14.4158 22.8815 14.3853C22.9261 14.3792 23.2033 14.3539 23.075 14.3609C22.9094 14.3705 23.4721 14.3931 23.1308 14.3548C23.1977 14.3627 23.2647 14.3696 23.3317 14.3801C23.0982 14.3418 23.2387 14.3557 23.2712 14.3722C23.3373 14.4062 23.3438 14.4253 23.3159 14.3844C23.2591 14.3 23.4749 14.488 23.3289 14.3905C23.4442 14.468 23.5447 14.5664 23.6414 14.663C24.2906 15.3133 24.6097 16.1378 24.4851 17.0232C24.2395 18.7574 23.9074 20.4864 23.6033 22.2119C23.487 22.8736 23.3679 23.5344 23.2368 24.1934C23.141 24.6775 24.7976 24.7637 24.9111 24.1934C25.2506 22.4949 25.5556 20.7929 25.8524 19.0874C25.9761 18.3787 26.0533 17.6082 26.3658 16.9492C26.7332 16.1735 27.4131 15.5693 28.254 15.255C28.4382 15.1862 28.6977 15.1166 28.8521 15.0861C28.8893 15.0792 29.0288 15.0574 29.106 15.0469C29.2316 15.0304 29.3618 15.0208 29.3674 15.0208C29.7655 15.0043 30.0296 15.0295 30.3803 15.1296C30.6296 15.201 30.931 15.3395 31.1551 15.5684C31.3458 15.7634 31.4649 16.0194 31.5123 16.2814C31.6444 17.0101 31.4695 17.7806 31.3002 18.491C31.0947 19.3512 30.8314 20.1982 30.6389 21.061C30.305 22.561 30.172 24.3562 31.8499 25.1833C32.8889 25.6952 34.2562 25.777 35.3966 25.602C36.5527 25.4236 37.6057 24.9256 38.3721 24.0872C40.0017 22.3025 40.1338 19.7177 39.9264 17.489C39.705 15.1088 38.972 12.7634 37.7675 10.6557C35.3956 6.5064 31.2518 3.40099 26.4532 2.03241C21.3802 0.583741 15.6989 1.05386 11.0277 3.42101C6.56955 5.67934 3.14104 9.56828 1.73838 14.1398C0.302238 18.8201 0.972871 23.9444 3.64704 28.132C6.25144 32.2107 10.5887 35.2073 15.5101 36.3643C16.8244 36.6734 18.1619 36.8536 19.5153 36.9189C19.6883 36.9276 19.8613 36.9337 20.0343 36.9372C20.0976 36.9389 20.5031 36.9302 20.2706 36.9285C20.3757 36.9293 20.4808 36.9424 20.5859 36.9476C20.8073 36.9581 21.0286 36.9624 21.25 36.9633C23.434 36.9772 25.671 36.7343 27.7536 36.1049C29.0018 35.7279 30.1906 35.203 31.2435 34.4664C31.556 34.2479 31.1644 33.9963 30.943 33.9301C30.584 33.8239 30.1059 33.8544 29.798 34.0703C27.8903 35.4058 25.4561 35.9186 23.1233 36.1119C22.4685 36.1658 21.6862 36.1911 20.9486 36.1754C20.8035 36.1719 20.651 36.1528 20.5059 36.1597C20.9561 36.1389 20.5617 36.1624 20.4268 36.1589C20.2743 36.1554 20.1217 36.1563 19.9701 36.1528C19.6567 36.1449 19.3432 36.1293 19.0298 36.1032C14.207 35.6992 9.69576 33.3895 6.68303 29.8444C3.5503 26.1592 2.15694 21.391 2.82758 16.7254C3.47868 12.1888 6.12215 8.02124 10.0315 5.27973C13.9642 2.52256 18.9907 1.43605 23.8163 2.28837C28.5005 3.11543 32.7103 5.8256 35.3156 9.54565C36.6458 11.4453 37.5722 13.5896 38.0103 15.8244C38.4437 18.0357 38.626 20.6092 37.5712 22.696C37.1387 23.5509 36.4681 24.3371 35.5063 24.6975C34.7473 24.9822 33.7298 24.9752 33.0331 24.627C31.6258 23.9235 32.1001 21.9316 32.381 20.7641C32.5801 19.9353 32.8331 19.1178 33.021 18.2864C33.1754 17.6004 33.3223 16.8578 33.1614 16.1613C32.7754 14.4924 30.5449 14.1424 29.013 14.2556C27.0513 14.3992 25.0915 15.4265 24.5446 17.2922C24.2097 18.4344 24.0925 19.648 23.8842 20.8155C23.6833 21.9429 23.461 23.0677 23.2368 24.1908C23.7949 24.1908 24.353 24.1908 24.9111 24.1908C25.2552 22.4609 25.537 20.7197 25.8291 18.982C25.9761 18.108 26.3035 17.1042 26.1658 16.2188C26.0375 15.3917 25.5343 14.5725 24.8413 14.0405C24.0442 13.4285 22.8471 13.5225 21.9095 13.7254C20.7524 13.9761 19.6539 14.4906 18.6382 15.0548C15.9091 16.5705 13.4554 18.6129 11.5374 20.9783C10.6194 22.1109 9.81575 23.3524 9.31998 24.7018C8.84561 25.9929 8.48564 27.6653 9.31812 28.9051C10.0678 30.0212 11.5374 30.3215 12.8564 30.2162C13.6479 30.1535 14.4525 29.928 15.1622 29.5955C15.605 29.3883 15.9212 29.0243 16.217 28.6596C17.5899 26.9636 18.2708 24.7541 18.8279 22.7247C19.5339 20.1556 19.9646 17.5055 20.1087 14.8563C20.2231 12.7573 20.2455 10.4798 19.4892 8.47046C19.2307 7.78269 18.8084 7.0305 18.0652 6.71883C16.8569 6.21214 15.3994 6.36362 14.2879 7.00873C12.4508 8.07347 11.2835 10.0776 10.4538 11.8884C10.3915 12.0242 10.3301 12.16 10.2743 12.2985C10.0455 12.867 11.6946 12.9897 11.889 12.5083Z"/>
</mask>
<path d="M11.889 12.5083C12.4229 11.1867 13.1773 9.88344 14.1167 8.77865C14.4525 8.3834 14.8339 8.01601 15.2627 7.70869C15.4394 7.58159 15.6236 7.47189 15.8235 7.37961C15.8682 7.35871 16.0589 7.2821 16.017 7.2969C16.07 7.27862 16.3798 7.20636 16.2663 7.22551C16.3295 7.21507 16.3937 7.20636 16.4579 7.20114C16.603 7.18895 16.2626 7.19417 16.5072 7.20375C16.5351 7.20462 16.6709 7.21071 16.5212 7.20288C16.5695 7.20549 16.6318 7.21245 16.6811 7.22377C16.7397 7.23683 16.9434 7.28645 17.0551 7.36916C17.2709 7.53022 17.3853 7.70347 17.5425 7.97248C18.441 9.50038 18.4754 11.4975 18.4791 13.1934C18.4838 15.5911 18.1963 17.9948 17.7183 20.348C17.2774 22.5193 16.6811 24.7097 15.6794 26.7199C15.3278 27.4242 14.8981 28.179 14.3539 28.7353C13.9986 29.0992 13.5242 29.2559 13.0164 29.3743C12.7531 29.4353 12.5653 29.4579 12.3476 29.4596C12.1281 29.4614 12.009 29.4501 11.7746 29.3682C10.7654 29.0183 10.4669 27.8229 10.5106 26.8766C10.5738 25.4976 11.1617 24.1656 11.8816 22.9789C13.3466 20.5656 15.511 18.5189 17.8643 16.8534C18.8809 16.1334 19.9571 15.4788 21.1096 14.9642C21.5625 14.7623 21.9365 14.616 22.408 14.488C22.7057 14.4079 22.6703 14.4158 22.8815 14.3853C22.9261 14.3792 23.2033 14.3539 23.075 14.3609C22.9094 14.3705 23.4721 14.3931 23.1308 14.3548C23.1977 14.3627 23.2647 14.3696 23.3317 14.3801C23.0982 14.3418 23.2387 14.3557 23.2712 14.3722C23.3373 14.4062 23.3438 14.4253 23.3159 14.3844C23.2591 14.3 23.4749 14.488 23.3289 14.3905C23.4442 14.468 23.5447 14.5664 23.6414 14.663C24.2906 15.3133 24.6097 16.1378 24.4851 17.0232C24.2395 18.7574 23.9074 20.4864 23.6033 22.2119C23.487 22.8736 23.3679 23.5344 23.2368 24.1934C23.141 24.6775 24.7976 24.7637 24.9111 24.1934C25.2506 22.4949 25.5556 20.7929 25.8524 19.0874C25.9761 18.3787 26.0533 17.6082 26.3658 16.9492C26.7332 16.1735 27.4131 15.5693 28.254 15.255C28.4382 15.1862 28.6977 15.1166 28.8521 15.0861C28.8893 15.0792 29.0288 15.0574 29.106 15.0469C29.2316 15.0304 29.3618 15.0208 29.3674 15.0208C29.7655 15.0043 30.0296 15.0295 30.3803 15.1296C30.6296 15.201 30.931 15.3395 31.1551 15.5684C31.3458 15.7634 31.4649 16.0194 31.5123 16.2814C31.6444 17.0101 31.4695 17.7806 31.3002 18.491C31.0947 19.3512 30.8314 20.1982 30.6389 21.061C30.305 22.561 30.172 24.3562 31.8499 25.1833C32.8889 25.6952 34.2562 25.777 35.3966 25.602C36.5527 25.4236 37.6057 24.9256 38.3721 24.0872C40.0017 22.3025 40.1338 19.7177 39.9264 17.489C39.705 15.1088 38.972 12.7634 37.7675 10.6557C35.3956 6.5064 31.2518 3.40099 26.4532 2.03241C21.3802 0.583741 15.6989 1.05386 11.0277 3.42101C6.56955 5.67934 3.14104 9.56828 1.73838 14.1398C0.302238 18.8201 0.972871 23.9444 3.64704 28.132C6.25144 32.2107 10.5887 35.2073 15.5101 36.3643C16.8244 36.6734 18.1619 36.8536 19.5153 36.9189C19.6883 36.9276 19.8613 36.9337 20.0343 36.9372C20.0976 36.9389 20.5031 36.9302 20.2706 36.9285C20.3757 36.9293 20.4808 36.9424 20.5859 36.9476C20.8073 36.9581 21.0286 36.9624 21.25 36.9633C23.434 36.9772 25.671 36.7343 27.7536 36.1049C29.0018 35.7279 30.1906 35.203 31.2435 34.4664C31.556 34.2479 31.1644 33.9963 30.943 33.9301C30.584 33.8239 30.1059 33.8544 29.798 34.0703C27.8903 35.4058 25.4561 35.9186 23.1233 36.1119C22.4685 36.1658 21.6862 36.1911 20.9486 36.1754C20.8035 36.1719 20.651 36.1528 20.5059 36.1597C20.9561 36.1389 20.5617 36.1624 20.4268 36.1589C20.2743 36.1554 20.1217 36.1563 19.9701 36.1528C19.6567 36.1449 19.3432 36.1293 19.0298 36.1032C14.207 35.6992 9.69576 33.3895 6.68303 29.8444C3.5503 26.1592 2.15694 21.391 2.82758 16.7254C3.47868 12.1888 6.12215 8.02124 10.0315 5.27973C13.9642 2.52256 18.9907 1.43605 23.8163 2.28837C28.5005 3.11543 32.7103 5.8256 35.3156 9.54565C36.6458 11.4453 37.5722 13.5896 38.0103 15.8244C38.4437 18.0357 38.626 20.6092 37.5712 22.696C37.1387 23.5509 36.4681 24.3371 35.5063 24.6975C34.7473 24.9822 33.7298 24.9752 33.0331 24.627C31.6258 23.9235 32.1001 21.9316 32.381 20.7641C32.5801 19.9353 32.8331 19.1178 33.021 18.2864C33.1754 17.6004 33.3223 16.8578 33.1614 16.1613C32.7754 14.4924 30.5449 14.1424 29.013 14.2556C27.0513 14.3992 25.0915 15.4265 24.5446 17.2922C24.2097 18.4344 24.0925 19.648 23.8842 20.8155C23.6833 21.9429 23.461 23.0677 23.2368 24.1908C23.7949 24.1908 24.353 24.1908 24.9111 24.1908C25.2552 22.4609 25.537 20.7197 25.8291 18.982C25.9761 18.108 26.3035 17.1042 26.1658 16.2188C26.0375 15.3917 25.5343 14.5725 24.8413 14.0405C24.0442 13.4285 22.8471 13.5225 21.9095 13.7254C20.7524 13.9761 19.6539 14.4906 18.6382 15.0548C15.9091 16.5705 13.4554 18.6129 11.5374 20.9783C10.6194 22.1109 9.81575 23.3524 9.31998 24.7018C8.84561 25.9929 8.48564 27.6653 9.31812 28.9051C10.0678 30.0212 11.5374 30.3215 12.8564 30.2162C13.6479 30.1535 14.4525 29.928 15.1622 29.5955C15.605 29.3883 15.9212 29.0243 16.217 28.6596C17.5899 26.9636 18.2708 24.7541 18.8279 22.7247C19.5339 20.1556 19.9646 17.5055 20.1087 14.8563C20.2231 12.7573 20.2455 10.4798 19.4892 8.47046C19.2307 7.78269 18.8084 7.0305 18.0652 6.71883C16.8569 6.21214 15.3994 6.36362 14.2879 7.00873C12.4508 8.07347 11.2835 10.0776 10.4538 11.8884C10.3915 12.0242 10.3301 12.16 10.2743 12.2985C10.0455 12.867 11.6946 12.9897 11.889 12.5083Z" fill="#3B607B"/>
<path d="M11.889 12.5083C12.4229 11.1867 13.1773 9.88344 14.1167 8.77865C14.4525 8.3834 14.8339 8.01601 15.2627 7.70869C15.4394 7.58159 15.6236 7.47189 15.8235 7.37961C15.8682 7.35871 16.0589 7.2821 16.017 7.2969C16.07 7.27862 16.3798 7.20636 16.2663 7.22551C16.3295 7.21507 16.3937 7.20636 16.4579 7.20114C16.603 7.18895 16.2626 7.19417 16.5072 7.20375C16.5351 7.20462 16.6709 7.21071 16.5212 7.20288C16.5695 7.20549 16.6318 7.21245 16.6811 7.22377C16.7397 7.23683 16.9434 7.28645 17.0551 7.36916C17.2709 7.53022 17.3853 7.70347 17.5425 7.97248C18.441 9.50038 18.4754 11.4975 18.4791 13.1934C18.4838 15.5911 18.1963 17.9948 17.7183 20.348C17.2774 22.5193 16.6811 24.7097 15.6794 26.7199C15.3278 27.4242 14.8981 28.179 14.3539 28.7353C13.9986 29.0992 13.5242 29.2559 13.0164 29.3743C12.7531 29.4353 12.5653 29.4579 12.3476 29.4596C12.1281 29.4614 12.009 29.4501 11.7746 29.3682C10.7654 29.0183 10.4669 27.8229 10.5106 26.8766C10.5738 25.4976 11.1617 24.1656 11.8816 22.9789C13.3466 20.5656 15.511 18.5189 17.8643 16.8534C18.8809 16.1334 19.9571 15.4788 21.1096 14.9642C21.5625 14.7623 21.9365 14.616 22.408 14.488C22.7057 14.4079 22.6703 14.4158 22.8815 14.3853C22.9261 14.3792 23.2033 14.3539 23.075 14.3609C22.9094 14.3705 23.4721 14.3931 23.1308 14.3548C23.1977 14.3627 23.2647 14.3696 23.3317 14.3801C23.0982 14.3418 23.2387 14.3557 23.2712 14.3722C23.3373 14.4062 23.3438 14.4253 23.3159 14.3844C23.2591 14.3 23.4749 14.488 23.3289 14.3905C23.4442 14.468 23.5447 14.5664 23.6414 14.663C24.2906 15.3133 24.6097 16.1378 24.4851 17.0232C24.2395 18.7574 23.9074 20.4864 23.6033 22.2119C23.487 22.8736 23.3679 23.5344 23.2368 24.1934C23.141 24.6775 24.7976 24.7637 24.9111 24.1934C25.2506 22.4949 25.5556 20.7929 25.8524 19.0874C25.9761 18.3787 26.0533 17.6082 26.3658 16.9492C26.7332 16.1735 27.4131 15.5693 28.254 15.255C28.4382 15.1862 28.6977 15.1166 28.8521 15.0861C28.8893 15.0792 29.0288 15.0574 29.106 15.0469C29.2316 15.0304 29.3618 15.0208 29.3674 15.0208C29.7655 15.0043 30.0296 15.0295 30.3803 15.1296C30.6296 15.201 30.931 15.3395 31.1551 15.5684C31.3458 15.7634 31.4649 16.0194 31.5123 16.2814C31.6444 17.0101 31.4695 17.7806 31.3002 18.491C31.0947 19.3512 30.8314 20.1982 30.6389 21.061C30.305 22.561 30.172 24.3562 31.8499 25.1833C32.8889 25.6952 34.2562 25.777 35.3966 25.602C36.5527 25.4236 37.6057 24.9256 38.3721 24.0872C40.0017 22.3025 40.1338 19.7177 39.9264 17.489C39.705 15.1088 38.972 12.7634 37.7675 10.6557C35.3956 6.5064 31.2518 3.40099 26.4532 2.03241C21.3802 0.583741 15.6989 1.05386 11.0277 3.42101C6.56955 5.67934 3.14104 9.56828 1.73838 14.1398C0.302238 18.8201 0.972871 23.9444 3.64704 28.132C6.25144 32.2107 10.5887 35.2073 15.5101 36.3643C16.8244 36.6734 18.1619 36.8536 19.5153 36.9189C19.6883 36.9276 19.8613 36.9337 20.0343 36.9372C20.0976 36.9389 20.5031 36.9302 20.2706 36.9285C20.3757 36.9293 20.4808 36.9424 20.5859 36.9476C20.8073 36.9581 21.0286 36.9624 21.25 36.9633C23.434 36.9772 25.671 36.7343 27.7536 36.1049C29.0018 35.7279 30.1906 35.203 31.2435 34.4664C31.556 34.2479 31.1644 33.9963 30.943 33.9301C30.584 33.8239 30.1059 33.8544 29.798 34.0703C27.8903 35.4058 25.4561 35.9186 23.1233 36.1119C22.4685 36.1658 21.6862 36.1911 20.9486 36.1754C20.8035 36.1719 20.651 36.1528 20.5059 36.1597C20.9561 36.1389 20.5617 36.1624 20.4268 36.1589C20.2743 36.1554 20.1217 36.1563 19.9701 36.1528C19.6567 36.1449 19.3432 36.1293 19.0298 36.1032C14.207 35.6992 9.69576 33.3895 6.68303 29.8444C3.5503 26.1592 2.15694 21.391 2.82758 16.7254C3.47868 12.1888 6.12215 8.02124 10.0315 5.27973C13.9642 2.52256 18.9907 1.43605 23.8163 2.28837C28.5005 3.11543 32.7103 5.8256 35.3156 9.54565C36.6458 11.4453 37.5722 13.5896 38.0103 15.8244C38.4437 18.0357 38.626 20.6092 37.5712 22.696C37.1387 23.5509 36.4681 24.3371 35.5063 24.6975C34.7473 24.9822 33.7298 24.9752 33.0331 24.627C31.6258 23.9235 32.1001 21.9316 32.381 20.7641C32.5801 19.9353 32.8331 19.1178 33.021 18.2864C33.1754 17.6004 33.3223 16.8578 33.1614 16.1613C32.7754 14.4924 30.5449 14.1424 29.013 14.2556C27.0513 14.3992 25.0915 15.4265 24.5446 17.2922C24.2097 18.4344 24.0925 19.648 23.8842 20.8155C23.6833 21.9429 23.461 23.0677 23.2368 24.1908C23.7949 24.1908 24.353 24.1908 24.9111 24.1908C25.2552 22.4609 25.537 20.7197 25.8291 18.982C25.9761 18.108 26.3035 17.1042 26.1658 16.2188C26.0375 15.3917 25.5343 14.5725 24.8413 14.0405C24.0442 13.4285 22.8471 13.5225 21.9095 13.7254C20.7524 13.9761 19.6539 14.4906 18.6382 15.0548C15.9091 16.5705 13.4554 18.6129 11.5374 20.9783C10.6194 22.1109 9.81575 23.3524 9.31998 24.7018C8.84561 25.9929 8.48564 27.6653 9.31812 28.9051C10.0678 30.0212 11.5374 30.3215 12.8564 30.2162C13.6479 30.1535 14.4525 29.928 15.1622 29.5955C15.605 29.3883 15.9212 29.0243 16.217 28.6596C17.5899 26.9636 18.2708 24.7541 18.8279 22.7247C19.5339 20.1556 19.9646 17.5055 20.1087 14.8563C20.2231 12.7573 20.2455 10.4798 19.4892 8.47046C19.2307 7.78269 18.8084 7.0305 18.0652 6.71883C16.8569 6.21214 15.3994 6.36362 14.2879 7.00873C12.4508 8.07347 11.2835 10.0776 10.4538 11.8884C10.3915 12.0242 10.3301 12.16 10.2743 12.2985C10.0455 12.867 11.6946 12.9897 11.889 12.5083Z" stroke="#3B607B" mask="url(#path-1-outside-1)"/>
</svg>
